<svg width="48" height="48" viewBox="0 0 48 48" fill="none" xmlns="http://www.w3.org/2000/svg">
<g clip-path="url(#clip0_117_44944)">
<path d="M17.2192 13.9958H24.7784" stroke="#2E1066" stroke-width="2" stroke-linecap="round" stroke-linejoin="round"/>
<path d="M17.2192 13.9958H24.7784" stroke="#410F9E" stroke-width="2" stroke-linecap="round" stroke-linejoin="round"/>
<path d="M17.2192 13.9958H24.7784" stroke="#453888" stroke-width="2" stroke-linecap="round" stroke-linejoin="round"/>
<path d="M17.2192 13.9958H24.7784" stroke="#5946D7" stroke-width="2" stroke-linecap="round" stroke-linejoin="round"/>
<path d="M17.9976 24H11.9951V38.0058" stroke="#2E1066" stroke-width="2" stroke-linecap="round" stroke-linejoin="round"/>
<path d="M17.9976 24H11.9951V38.0058" stroke="#410F9E" stroke-width="2" stroke-linecap="round" stroke-linejoin="round"/>
<path d="M17.9976 24H11.9951V38.0058" stroke="#453888" stroke-width="2" stroke-linecap="round" stroke-linejoin="round"/>
<path d="M17.9976 24H11.9951V38.0058" stroke="#5946D7" stroke-width="2" stroke-linecap="round" stroke-linejoin="round"/>
<path d="M11.995 38.0058H3.9917V15.1203C3.9917 13.7476 4.7362 12.4829 5.93651 11.8169L19.164 4.46786C20.3057 3.83351 21.6939 3.83351 22.8355 4.46786L36.0631 11.8169C37.2623 12.4837 38.0059 13.7481 38.0059 15.1203V17.9975" stroke="#2E1066" stroke-width="2" stroke-linecap="round" stroke-linejoin="round"/>
<path d="M11.995 38.0058H3.9917V15.1203C3.9917 13.7476 4.7362 12.4829 5.93651 11.8169L19.164 4.46786C20.3057 3.83351 21.6939 3.83351 22.8355 4.46786L36.0631 11.8169C37.2623 12.4837 38.0059 13.7481 38.0059 15.1203V17.9975" stroke="#410F9E" stroke-width="2" stroke-linecap="round" stroke-linejoin="round"/>
<path d="M11.995 38.0058H3.9917V15.1203C3.9917 13.7476 4.7362 12.4829 5.93651 11.8169L19.164 4.46786C20.3057 3.83351 21.6939 3.83351 22.8355 4.46786L36.0631 11.8169C37.2623 12.4837 38.0059 13.7481 38.0059 15.1203V17.9975" stroke="#453888" stroke-width="2" stroke-linecap="round" stroke-linejoin="round"/>
<path d="M11.995 38.0058H3.9917V15.1203C3.9917 13.7476 4.7362 12.4829 5.93651 11.8169L19.164 4.46786C20.3057 3.83351 21.6939 3.83351 22.8355 4.46786L36.0631 11.8169C37.2623 12.4837 38.0059 13.7481 38.0059 15.1203V17.9975" stroke="#5946D7" stroke-width="2" stroke-linecap="round" stroke-linejoin="round"/>
<path d="M44.0085 35.6048C44.0085 33.3948 42.2169 31.6031 40.0069 31.6031H24.0002C21.7901 31.6031 19.9985 33.3948 19.9985 35.6048" stroke="#2E1066" stroke-width="2" stroke-linecap="round" stroke-linejoin="round"/>
<path d="M44.0085 35.6048C44.0085 33.3948 42.2169 31.6031 40.0069 31.6031H24.0002C21.7901 31.6031 19.9985 33.3948 19.9985 35.6048" stroke="#410F9E" stroke-width="2" stroke-linecap="round" stroke-linejoin="round"/>
<path d="M44.0085 35.6048C44.0085 33.3948 42.2169 31.6031 40.0069 31.6031H24.0002C21.7901 31.6031 19.9985 33.3948 19.9985 35.6048" stroke="#453888" stroke-width="2" stroke-linecap="round" stroke-linejoin="round"/>
<path d="M44.0085 35.6048C44.0085 33.3948 42.2169 31.6031 40.0069 31.6031H24.0002C21.7901 31.6031 19.9985 33.3948 19.9985 35.6048" stroke="#5946D7" stroke-width="2" stroke-linecap="round" stroke-linejoin="round"/>
<path d="M19.9985 35.6048V42.0075C19.9985 43.1125 20.8943 44.0083 21.9994 44.0083H23.9802C25.0852 44.0083 25.981 43.1125 25.981 42.0075V40.6849H38.026V42.0075C38.026 43.1125 38.9218 44.0083 40.0269 44.0083H42.0077C43.1127 44.0083 44.0085 43.1125 44.0085 42.0075V35.6048" stroke="#2E1066" stroke-width="2" stroke-linecap="round" stroke-linejoin="round"/>
<path d="M19.9985 35.6048V42.0075C19.9985 43.1125 20.8943 44.0083 21.9994 44.0083H23.9802C25.0852 44.0083 25.981 43.1125 25.981 42.0075V40.6849H38.026V42.0075C38.026 43.1125 38.9218 44.0083 40.0269 44.0083H42.0077C43.1127 44.0083 44.0085 43.1125 44.0085 42.0075V35.6048" stroke="#410F9E" stroke-width="2" stroke-linecap="round" stroke-linejoin="round"/>
<path d="M19.9985 35.6048V42.0075C19.9985 43.1125 20.8943 44.0083 21.9994 44.0083H23.9802C25.0852 44.0083 25.981 43.1125 25.981 42.0075V40.6849H38.026V42.0075C38.026 43.1125 38.9218 44.0083 40.0269 44.0083H42.0077C43.1127 44.0083 44.0085 43.1125 44.0085 42.0075V35.6048" stroke="#453888" stroke-width="2" stroke-linecap="round" stroke-linejoin="round"/>
<path d="M19.9985 35.6048V42.0075C19.9985 43.1125 20.8943 44.0083 21.9994 44.0083H23.9802C25.0852 44.0083 25.981 43.1125 25.981 42.0075V40.6849H38.026V42.0075C38.026 43.1125 38.9218 44.0083 40.0269 44.0083H42.0077C43.1127 44.0083 44.0085 43.1125 44.0085 42.0075V35.6048" stroke="#5946D7" stroke-width="2" stroke-linecap="round" stroke-linejoin="round"/>
<path d="M27.4756 36.2051H24.4844" stroke="#2E1066" stroke-width="2" stroke-linecap="round" stroke-linejoin="round"/>
<path d="M27.4756 36.2051H24.4844" stroke="#410F9E" stroke-width="2" stroke-linecap="round" stroke-linejoin="round"/>
<path d="M27.4756 36.2051H24.4844" stroke="#453888" stroke-width="2" stroke-linecap="round" stroke-linejoin="round"/>
<path d="M27.4756 36.2051H24.4844" stroke="#5946D7" stroke-width="2" stroke-linecap="round" stroke-linejoin="round"/>
<path d="M39.5225 36.2051H36.5312" stroke="#2E1066" stroke-width="2" stroke-linecap="round" stroke-linejoin="round"/>
<path d="M39.5225 36.2051H36.5312" stroke="#410F9E" stroke-width="2" stroke-linecap="round" stroke-linejoin="round"/>
<path d="M39.5225 36.2051H36.5312" stroke="#453888" stroke-width="2" stroke-linecap="round" stroke-linejoin="round"/>
<path d="M39.5225 36.2051H36.5312" stroke="#5946D7" stroke-width="2" stroke-linecap="round" stroke-linejoin="round"/>
<path d="M41.0171 31.4771L44.0083 29.9825" stroke="#2E1066" stroke-width="2" stroke-linecap="round" stroke-linejoin="round"/>
<path d="M41.0171 31.4771L44.0083 29.9825" stroke="#410F9E" stroke-width="2" stroke-linecap="round" stroke-linejoin="round"/>
<path d="M41.0171 31.4771L44.0083 29.9825" stroke="#453888" stroke-width="2" stroke-linecap="round" stroke-linejoin="round"/>
<path d="M41.0171 31.4771L44.0083 29.9825" stroke="#5946D7" stroke-width="2" stroke-linecap="round" stroke-linejoin="round"/>
<path d="M22.9998 31.4771L19.9985 29.9825" stroke="#2E1066" stroke-width="2" stroke-linecap="round" stroke-linejoin="round"/>
<path d="M22.9998 31.4771L19.9985 29.9825" stroke="#410F9E" stroke-width="2" stroke-linecap="round" stroke-linejoin="round"/>
<path d="M22.9998 31.4771L19.9985 29.9825" stroke="#453888" stroke-width="2" stroke-linecap="round" stroke-linejoin="round"/>
<path d="M22.9998 31.4771L19.9985 29.9825" stroke="#5946D7" stroke-width="2" stroke-linecap="round" stroke-linejoin="round"/>
<path d="M27.1373 24C25.7485 24.0035 24.5435 24.9594 24.2241 26.311L22.9556 31.7332L24.2241 26.311C24.5435 24.9594 25.7485 24.0035 27.1373 24H36.8694C38.2582 24.0035 39.4632 24.9594 39.7826 26.311L41.0511 31.7332" stroke="#2E1066" stroke-width="2" stroke-linecap="round" stroke-linejoin="round"/>
<path d="M27.1373 24C25.7485 24.0035 24.5435 24.9594 24.2241 26.311L22.9556 31.7332L24.2241 26.311C24.5435 24.9594 25.7485 24.0035 27.1373 24H36.8694C38.2582 24.0035 39.4632 24.9594 39.7826 26.311L41.0511 31.7332" stroke="#410F9E" stroke-width="2" stroke-linecap="round" stroke-linejoin="round"/>
<path d="M27.1373 24C25.7485 24.0035 24.5435 24.9594 24.2241 26.311L22.9556 31.7332L24.2241 26.311C24.5435 24.9594 25.7485 24.0035 27.1373 24H36.8694C38.2582 24.0035 39.4632 24.9594 39.7826 26.311L41.0511 31.7332" stroke="#453888" stroke-width="2" stroke-linecap="round" stroke-linejoin="round"/>
<path d="M27.1373 24C25.7485 24.0035 24.5435 24.9594 24.2241 26.311L22.9556 31.7332L24.2241 26.311C24.5435 24.9594 25.7485 24.0035 27.1373 24H36.8694C38.2582 24.0035 39.4632 24.9594 39.7826 26.311L41.0511 31.7332" stroke="#5946D7" stroke-width="2" stroke-linecap="round" stroke-linejoin="round"/>
</g>
<defs>
<clipPath id="clip0_117_44944">
<rect width="48" height="48" fill="white"/>
</clipPath>
</defs>
</svg>
